<svg width="40" height="40" viewBox="0 0 40 40" fill="none" xmlns="http://www.w3.org/2000/svg">
<path fill-rule="evenodd" clip-rule="evenodd" d="M36.325 26.325C33.1609 27.5526 29.7082 27.8336 26.3873 27.134C23.0664 26.4343 20.0205 24.7841 17.6207 22.3843C15.2209 19.9845 13.5707 16.9386 12.871 13.6177C12.1713 10.2968 12.4524 6.84404 13.68 3.67999C9.87943 5.16111 6.71531 7.92279 4.73393 11.4882C2.75256 15.0536 2.0783 19.199 2.82757 23.2085C3.57685 27.2181 5.70262 30.8402 8.83787 33.4494C11.9731 36.0587 15.921 37.4913 20 37.5C23.5307 37.5009 26.9791 36.4342 29.8925 34.4398C32.806 32.4455 35.0483 29.6167 36.325 26.325Z" fill="black" fill-opacity="0.65"/>
</svg>
