<svg width="45" height="45" viewBox="0 0 45 45" fill="none" xmlns="http://www.w3.org/2000/svg">
<path d="M22.5 11.25C22.9973 11.25 23.4742 11.0525 23.8258 10.7008C24.1775 10.3492 24.375 9.87228 24.375 9.375V5.625C24.375 5.12772 24.1775 4.65081 23.8258 4.29917C23.4742 3.94754 22.9973 3.75 22.5 3.75C22.0027 3.75 21.5258 3.94754 21.1742 4.29917C20.8225 4.65081 20.625 5.12772 20.625 5.625V9.375C20.625 9.87228 20.8225 10.3492 21.1742 10.7008C21.5258 11.0525 22.0027 11.25 22.5 11.25ZM39.375 20.625H35.625C35.1277 20.625 34.6508 20.8225 34.2992 21.1742C33.9475 21.5258 33.75 22.0027 33.75 22.5C33.75 22.9973 33.9475 23.4742 34.2992 23.8258C34.6508 24.1775 35.1277 24.375 35.625 24.375H39.375C39.8723 24.375 40.3492 24.1775 40.7008 23.8258C41.0525 23.4742 41.25 22.9973 41.25 22.5C41.25 22.0027 41.0525 21.5258 40.7008 21.1742C40.3492 20.8225 39.8723 20.625 39.375 20.625ZM11.25 22.5C11.25 22.0027 11.0525 21.5258 10.7008 21.1742C10.3492 20.8225 9.87228 20.625 9.375 20.625H5.625C5.12772 20.625 4.65081 20.8225 4.29917 21.1742C3.94754 21.5258 3.75 22.0027 3.75 22.5C3.75 22.9973 3.94754 23.4742 4.29917 23.8258C4.65081 24.1775 5.12772 24.375 5.625 24.375H9.375C9.87228 24.375 10.3492 24.1775 10.7008 23.8258C11.0525 23.4742 11.25 22.9973 11.25 22.5ZM11.6625 9.375C11.297 9.02939 10.8092 8.84313 10.3063 8.85719C9.80351 8.87126 9.32686 9.0845 8.98125 9.45C8.63564 9.8155 8.44938 10.3033 8.46344 10.8062C8.47751 11.309 8.69075 11.7856 9.05625 12.1312L11.7562 14.7375C11.9374 14.9125 12.152 15.0491 12.3872 15.1393C12.6224 15.2295 12.8733 15.2714 13.125 15.2625C13.3776 15.2615 13.6273 15.2096 13.8593 15.1097C14.0913 15.0098 14.3007 14.8641 14.475 14.6812C14.8242 14.3299 15.0202 13.8547 15.0202 13.3594C15.0202 12.864 14.8242 12.3888 14.475 12.0375L11.6625 9.375ZM31.875 15.2625C32.3578 15.2606 32.8212 15.0725 33.1687 14.7375L35.8687 12.1312C36.1981 11.7871 36.3842 11.3305 36.3891 10.8541C36.394 10.3778 36.2174 9.91743 35.8952 9.56657C35.5729 9.21571 35.1292 9.00064 34.6542 8.96506C34.1792 8.92948 33.7084 9.07605 33.3375 9.375L30.6375 12.0375C30.2883 12.3888 30.0923 12.864 30.0923 13.3594C30.0923 13.8547 30.2883 14.3299 30.6375 14.6812C30.9621 15.0238 31.404 15.2314 31.875 15.2625ZM22.5 33.75C22.0027 33.75 21.5258 33.9475 21.1742 34.2992C20.8225 34.6508 20.625 35.1277 20.625 35.625V39.375C20.625 39.8723 20.8225 40.3492 21.1742 40.7008C21.5258 41.0525 22.0027 41.25 22.5 41.25C22.9973 41.25 23.4742 41.0525 23.8258 40.7008C24.1775 40.3492 24.375 39.8723 24.375 39.375V35.625C24.375 35.1277 24.1775 34.6508 23.8258 34.2992C23.4742 33.9475 22.9973 33.75 22.5 33.75ZM33.2437 30.2625C32.8857 29.9169 32.405 29.7277 31.9075 29.7365C31.4099 29.7452 30.9362 29.9513 30.5906 30.3094C30.245 30.6674 30.0558 31.1481 30.0646 31.6456C30.0734 32.1432 30.2795 32.6169 30.6375 32.9625L33.3375 35.625C33.6851 35.96 34.1485 36.1481 34.6312 36.15C34.8825 36.1515 35.1314 36.1024 35.3634 36.0058C35.5953 35.9092 35.8054 35.7669 35.9812 35.5875C36.157 35.4132 36.2965 35.2058 36.3917 34.9773C36.4869 34.7488 36.5359 34.5038 36.5359 34.2562C36.5359 34.0087 36.4869 33.7637 36.3917 33.5352C36.2965 33.3067 36.157 33.0993 35.9812 32.925L33.2437 30.2625ZM11.7562 30.2625L9.05625 32.8687C8.88051 33.0431 8.74102 33.2504 8.64583 33.4789C8.55064 33.7074 8.50163 33.9525 8.50163 34.2C8.50163 34.4475 8.55064 34.6926 8.64583 34.9211C8.74102 35.1496 8.88051 35.3569 9.05625 35.5312C9.23211 35.7107 9.44223 35.8529 9.67414 35.9495C9.90605 36.0462 10.155 36.0952 10.4062 36.0937C10.8685 36.0977 11.3158 35.9308 11.6625 35.625L14.3625 33.0187C14.7205 32.6731 14.9266 32.1995 14.9354 31.7019C14.9442 31.2043 14.755 30.7237 14.4094 30.3656C14.0638 30.0076 13.5901 29.8015 13.0925 29.7927C12.595 29.7839 12.1143 29.9731 11.7562 30.3187V30.2625ZM22.5 15C21.0166 15 19.5666 15.4399 18.3332 16.264C17.0999 17.0881 16.1386 18.2594 15.5709 19.6299C15.0032 21.0003 14.8547 22.5083 15.1441 23.9632C15.4335 25.418 16.1478 26.7544 17.1967 27.8033C18.2456 28.8522 19.582 29.5665 21.0368 29.8559C22.4917 30.1453 23.9997 29.9968 25.3701 29.4291C26.7406 28.8614 27.9119 27.9001 28.736 26.6668C29.5601 25.4334 30 23.9834 30 22.5C30 20.5109 29.2098 18.6032 27.8033 17.1967C26.3968 15.7902 24.4891 15 22.5 15Z" fill="white" fill-opacity="0.8"/>
</svg>
