<svg width="40" height="40" viewBox="0 0 40 40" fill="none" xmlns="http://www.w3.org/2000/svg">
<path d="M20 14.793C17.1328 14.793 14.793 17.1328 14.793 20C14.793 22.8672 17.1328 25.207 20 25.207C22.8672 25.207 25.207 22.8672 25.207 20C25.207 17.1328 22.8672 14.793 20 14.793ZM35.6172 20C35.6172 17.8438 35.6367 15.707 35.5156 13.5547C35.3945 11.0547 34.8242 8.83594 32.9961 7.00781C31.1641 5.17578 28.9492 4.60938 26.4492 4.48828C24.293 4.36719 22.1562 4.38672 20.0039 4.38672C17.8477 4.38672 15.7109 4.36719 13.5586 4.48828C11.0586 4.60938 8.83985 5.17969 7.01172 7.00781C5.17969 8.83985 4.61328 11.0547 4.49219 13.5547C4.3711 15.7109 4.39063 17.8477 4.39063 20C4.39063 22.1523 4.3711 24.293 4.49219 26.4453C4.61328 28.9453 5.1836 31.1641 7.01172 32.9922C8.84375 34.8242 11.0586 35.3906 13.5586 35.5117C15.7148 35.6328 17.8516 35.6133 20.0039 35.6133C22.1602 35.6133 24.2969 35.6328 26.4492 35.5117C28.9492 35.3906 31.168 34.8203 32.9961 32.9922C34.8281 31.1602 35.3945 28.9453 35.5156 26.4453C35.6406 24.293 35.6172 22.1563 35.6172 20ZM20 28.0117C15.5664 28.0117 11.9883 24.4336 11.9883 20C11.9883 15.5664 15.5664 11.9883 20 11.9883C24.4336 11.9883 28.0117 15.5664 28.0117 20C28.0117 24.4336 24.4336 28.0117 20 28.0117ZM28.3398 13.5313C27.3047 13.5313 26.4688 12.6953 26.4688 11.6602C26.4688 10.625 27.3047 9.78906 28.3398 9.78906C29.375 9.78906 30.2109 10.625 30.2109 11.6602C30.2113 11.906 30.1631 12.1494 30.0691 12.3766C29.9752 12.6037 29.8374 12.8101 29.6636 12.9839C29.4898 13.1577 29.2834 13.2955 29.0562 13.3895C28.8291 13.4834 28.5856 13.5316 28.3398 13.5313Z" fill="black"/>
</svg>
