<svg width="40" height="40" viewBox="0 0 40 40" fill="none" xmlns="http://www.w3.org/2000/svg">
<path d="M16.5466 18.7333C16.7211 19.6399 16.7064 20.5728 16.5033 21.4733L24.9033 25.7017C25.9498 24.4617 27.4126 23.6459 29.0176 23.4073C30.6225 23.1687 32.2594 23.5236 33.6214 24.4054C34.9834 25.2873 35.977 26.6356 36.416 28.1977C36.855 29.7597 36.7093 31.4283 36.0061 32.8906C35.303 34.3529 34.0906 35.5085 32.5964 36.1409C31.1021 36.7733 29.4285 36.8391 27.8893 36.3258C26.35 35.8126 25.0507 34.7556 24.235 33.353C23.4193 31.9503 23.1432 30.2984 23.4583 28.7067L14.975 24.4367C14.0698 25.4518 12.8758 26.1658 11.5532 26.4829C10.2307 26.8 8.84272 26.7049 7.57569 26.2105C6.30866 25.7161 5.22315 24.846 4.46483 23.717C3.70651 22.588 3.31165 21.254 3.33324 19.8941C3.35483 18.5342 3.79183 17.2134 4.58562 16.109C5.3794 15.0046 6.49198 14.1694 7.77406 13.7155C9.05615 13.2616 10.4464 13.2107 11.7583 13.5695C13.0701 13.9284 14.2408 14.68 15.1133 15.7233L23.5066 11.52C23.1366 9.94021 23.3554 8.27967 24.122 6.84964C24.8887 5.41961 26.1505 4.31826 27.6711 3.75202C29.1916 3.18578 30.8665 3.19351 32.3818 3.77378C33.897 4.35404 35.1486 5.46701 35.902 6.90406C36.6554 8.34111 36.8589 10.0036 36.4742 11.5799C36.0896 13.1562 35.1433 14.5382 33.8127 15.4667C32.4821 16.3952 30.8585 16.8066 29.2462 16.6237C27.634 16.4409 26.1438 15.6763 25.055 14.4733L16.5466 18.7333Z" fill="white" fill-opacity="0.8"/>
</svg>
